# xmcd
#
# Track frame offsets:
# 150
# 12870
# 25314
# 37555
# 49762
# 62080
# 74115
# 85859
# 97917
# 111557
# 124222
# 133226
# 146599
# 160514
# 172326
# 182193
# 194602
# 206448
# 218349
# 229906
# 241893
# 250816
# 262155
# 271489
# 282602
# 297332
# 307313
# 322899
#
# Disc length: 4449 seconds
#
#
# Revision: 1
# Processed by: cddbd v1.5.1PL2 Copyright (c) Steve Scherf et al.
# Submitted via: FreeRIP 2.945 
#
DISCID=b3115f1c
DTITLE=Bill Monroe - Walking In The Spirit
DYEAR=2002
DGENRE=Gospel
TTITLE0=I'll Meet You In Church Sunday Morning
TTITLE1=Boat Of Love
TTITLE2=Protect My Soul
TTITLE3=River Of Death
TTITLE4=Swing Low Sweet Chariot
TTITLE5=Angels Rock Me To Sleep
TTITLE6=You're Drifting Away
TTITLE7=Lonely And Blue
TTITLE8=Get Down On YOur Knees And Pray
TTITLE9=Christmas Times A Coming
TTITLE10=I Want To Be Ready
TTITLE11=No Mother Or Dad
TTITLE12=The Dreadful Snake
TTITLE13=Don't Put Off What You Can Do Today
TTITLE14=I Want To Thank My Jesus
TTITLE15=I'm Working On A Building
TTITLE16=I Hear A Sweet Voice
TTITLE17=He Will Set Your Fields On Fire
TTITLE18=Put My Little Shoes Away
TTITLE19=Wait A Little Longer Please Jesus
TTITLE20=Let The Light Shine Down On Me
TTITLE21=I Saw The Light
TTITLE22=Lord Build Me A Cabin In Gloryland
TTITLE23=Lord Lead Me On
TTITLE24=Precious Memories
TTITLE25=I'll Meet You In The Morning
TTITLE26=I Found A Hiding Place
TTITLE27=I'm A Pilgrim Blessed Jesus Hold My Hand
EXTD=Mill Creek Records
EXTT0=
EXTT1=
EXTT2=
EXTT3=
EXTT4=
EXTT5=
EXTT6=
EXTT7=
EXTT8=
EXTT9=
EXTT10=
EXTT11=
EXTT12=
EXTT13=
EXTT14=
EXTT15=
EXTT16=
EXTT17=
EXTT18=
EXTT19=
EXTT20=
EXTT21=
EXTT22=
EXTT23=
EXTT24=
EXTT25=
EXTT26=
EXTT27=
PLAYORDER=
